<mxfile host="65bd71144e" modified="2020-11-10T15:46:56.537Z" agent="5.0 (Windows NT 10.0; Win64; x64) AppleWebKit/537.36 (KHTML, like Gecko) Code/1.51.0 Chrome/83.0.4103.122 Electron/9.3.3 Safari/537.36" etag="GEIY1IgkKdLXZfTFtwMt" version="13.6.5">
    <diagram id="ZKVBQ6ebWP1mwrjXD9sY" name="第 1 页">
        <mxGraphModel dx="419" dy="557" grid="1" gridSize="12" guides="1" tooltips="1" connect="1" arrows="1" fold="1" page="1" pageScale="1" pageWidth="1200" pageHeight="1600" background="none" math="0" shadow="0">
            <root>
                <mxCell id="0"/>
                <mxCell id="61" value="逻辑符号" parent="0"/>
                <mxCell id="31" value="" style="group" vertex="1" connectable="0" parent="61">
                    <mxGeometry x="48" y="192" width="96" height="72" as="geometry"/>
                </mxCell>
                <mxCell id="25" value="" style="group" vertex="1" connectable="0" parent="31">
                    <mxGeometry width="96" height="72" as="geometry"/>
                </mxCell>
                <mxCell id="26" value="" style="group" vertex="1" connectable="0" parent="25">
                    <mxGeometry width="96" height="72" as="geometry"/>
                </mxCell>
                <mxCell id="27" value="&lt;span style=&quot;font-size: 22px&quot;&gt;≥1&lt;/span&gt;" style="rounded=0;whiteSpace=wrap;html=1;shadow=0;fillColor=none;strokeWidth=2;verticalAlign=top;" vertex="1" parent="26">
                    <mxGeometry x="24" width="48" height="72" as="geometry"/>
                </mxCell>
                <mxCell id="28" value="" style="endArrow=none;html=1;entryX=0;entryY=0.25;entryDx=0;entryDy=0;strokeWidth=2;" edge="1" parent="26" target="27">
                    <mxGeometry width="50" height="50" relative="1" as="geometry">
                        <mxPoint y="18" as="sourcePoint"/>
                        <mxPoint x="38" y="-1" as="targetPoint"/>
                    </mxGeometry>
                </mxCell>
                <mxCell id="29" value="" style="endArrow=none;html=1;entryX=0;entryY=0.75;entryDx=0;entryDy=0;strokeWidth=2;" edge="1" parent="26" target="27">
                    <mxGeometry width="50" height="50" relative="1" as="geometry">
                        <mxPoint y="54" as="sourcePoint"/>
                        <mxPoint x="48" y="36" as="targetPoint"/>
                    </mxGeometry>
                </mxCell>
                <mxCell id="30" value="" style="endArrow=none;html=1;entryX=0;entryY=0.25;entryDx=0;entryDy=0;strokeWidth=2;exitX=1;exitY=0.5;exitDx=0;exitDy=0;" edge="1" parent="26" source="27">
                    <mxGeometry width="50" height="50" relative="1" as="geometry">
                        <mxPoint x="72" y="35.80000000000001" as="sourcePoint"/>
                        <mxPoint x="96" y="35.80000000000001" as="targetPoint"/>
                    </mxGeometry>
                </mxCell>
                <mxCell id="24" value="" style="group" vertex="1" connectable="0" parent="61">
                    <mxGeometry x="48" y="48" width="96" height="72" as="geometry"/>
                </mxCell>
                <mxCell id="23" value="" style="group" vertex="1" connectable="0" parent="24">
                    <mxGeometry width="96" height="72" as="geometry"/>
                </mxCell>
                <mxCell id="19" value="&lt;font style=&quot;font-size: 22px&quot;&gt;&amp;amp;&lt;/font&gt;" style="rounded=0;whiteSpace=wrap;html=1;shadow=0;fillColor=none;strokeWidth=2;verticalAlign=top;" parent="23" vertex="1">
                    <mxGeometry x="24" width="48" height="72" as="geometry"/>
                </mxCell>
                <mxCell id="20" value="" style="endArrow=none;html=1;entryX=0;entryY=0.25;entryDx=0;entryDy=0;strokeWidth=2;" parent="23" target="19" edge="1">
                    <mxGeometry width="50" height="50" relative="1" as="geometry">
                        <mxPoint y="18" as="sourcePoint"/>
                        <mxPoint x="38" y="-1" as="targetPoint"/>
                    </mxGeometry>
                </mxCell>
                <mxCell id="21" value="" style="endArrow=none;html=1;entryX=0;entryY=0.75;entryDx=0;entryDy=0;strokeWidth=2;" parent="23" target="19" edge="1">
                    <mxGeometry width="50" height="50" relative="1" as="geometry">
                        <mxPoint y="54" as="sourcePoint"/>
                        <mxPoint x="48" y="36" as="targetPoint"/>
                    </mxGeometry>
                </mxCell>
                <mxCell id="22" value="" style="endArrow=none;html=1;entryX=0;entryY=0.25;entryDx=0;entryDy=0;strokeWidth=2;exitX=1;exitY=0.5;exitDx=0;exitDy=0;" edge="1" parent="23" source="19">
                    <mxGeometry width="50" height="50" relative="1" as="geometry">
                        <mxPoint x="72" y="35.80000000000001" as="sourcePoint"/>
                        <mxPoint x="96" y="35.80000000000001" as="targetPoint"/>
                    </mxGeometry>
                </mxCell>
                <mxCell id="33" value="" style="group" vertex="1" connectable="0" parent="61">
                    <mxGeometry x="48" y="336" width="96" height="72" as="geometry"/>
                </mxCell>
                <mxCell id="35" value="&lt;span style=&quot;font-size: 22px&quot;&gt;1&lt;/span&gt;" style="rounded=0;whiteSpace=wrap;html=1;shadow=0;fillColor=none;strokeWidth=2;verticalAlign=top;" vertex="1" parent="33">
                    <mxGeometry x="24" width="48" height="72" as="geometry"/>
                </mxCell>
                <mxCell id="37" value="" style="endArrow=none;html=1;entryX=0;entryY=0.5;entryDx=0;entryDy=0;strokeWidth=2;" edge="1" parent="33" target="35">
                    <mxGeometry width="50" height="50" relative="1" as="geometry">
                        <mxPoint y="36" as="sourcePoint"/>
                        <mxPoint x="48" y="36" as="targetPoint"/>
                    </mxGeometry>
                </mxCell>
                <mxCell id="38" value="" style="endArrow=none;html=1;entryX=0;entryY=0.25;entryDx=0;entryDy=0;strokeWidth=2;exitX=1;exitY=0.5;exitDx=0;exitDy=0;" edge="1" parent="33" source="41">
                    <mxGeometry width="50" height="50" relative="1" as="geometry">
                        <mxPoint x="72" y="35.80000000000001" as="sourcePoint"/>
                        <mxPoint x="96" y="35.80000000000001" as="targetPoint"/>
                    </mxGeometry>
                </mxCell>
                <mxCell id="41" value="" style="verticalLabelPosition=bottom;shadow=0;dashed=0;align=center;html=1;verticalAlign=top;shape=mxgraph.electrical.logic_gates.inverting_contact;strokeWidth=2;" vertex="1" parent="33">
                    <mxGeometry x="72" y="30" width="12" height="12" as="geometry"/>
                </mxCell>
                <mxCell id="42" value="" style="endArrow=none;html=1;entryX=0;entryY=0.25;entryDx=0;entryDy=0;strokeWidth=2;exitX=1;exitY=0.5;exitDx=0;exitDy=0;" edge="1" parent="33" source="35" target="41">
                    <mxGeometry width="50" height="50" relative="1" as="geometry">
                        <mxPoint x="120" y="372" as="sourcePoint"/>
                        <mxPoint x="144" y="371.79999999999995" as="targetPoint"/>
                    </mxGeometry>
                </mxCell>
                <mxCell id="62" value="" style="group" vertex="1" connectable="0" parent="61">
                    <mxGeometry x="48" y="480" width="96" height="72" as="geometry"/>
                </mxCell>
                <mxCell id="63" value="&lt;span style=&quot;font-size: 22px&quot;&gt;=1&lt;/span&gt;" style="rounded=0;whiteSpace=wrap;html=1;shadow=0;fillColor=none;strokeWidth=2;verticalAlign=top;" vertex="1" parent="62">
                    <mxGeometry x="24" width="48" height="72" as="geometry"/>
                </mxCell>
                <mxCell id="64" value="" style="endArrow=none;html=1;entryX=0;entryY=0.5;entryDx=0;entryDy=0;strokeWidth=2;" edge="1" parent="62" target="63">
                    <mxGeometry width="50" height="50" relative="1" as="geometry">
                        <mxPoint y="36" as="sourcePoint"/>
                        <mxPoint x="48" y="36" as="targetPoint"/>
                    </mxGeometry>
                </mxCell>
                <mxCell id="65" value="" style="endArrow=none;html=1;entryX=0;entryY=0.25;entryDx=0;entryDy=0;strokeWidth=2;exitX=1;exitY=0.5;exitDx=0;exitDy=0;" edge="1" parent="62" source="66">
                    <mxGeometry width="50" height="50" relative="1" as="geometry">
                        <mxPoint x="72" y="35.80000000000001" as="sourcePoint"/>
                        <mxPoint x="96" y="35.80000000000001" as="targetPoint"/>
                    </mxGeometry>
                </mxCell>
                <mxCell id="66" value="" style="verticalLabelPosition=bottom;shadow=0;dashed=0;align=center;html=1;verticalAlign=top;shape=mxgraph.electrical.logic_gates.inverting_contact;strokeWidth=2;" vertex="1" parent="62">
                    <mxGeometry x="72" y="30" width="12" height="12" as="geometry"/>
                </mxCell>
                <mxCell id="67" value="" style="endArrow=none;html=1;entryX=0;entryY=0.25;entryDx=0;entryDy=0;strokeWidth=2;exitX=1;exitY=0.5;exitDx=0;exitDy=0;" edge="1" parent="62" source="63" target="66">
                    <mxGeometry width="50" height="50" relative="1" as="geometry">
                        <mxPoint x="120" y="372" as="sourcePoint"/>
                        <mxPoint x="144" y="371.79999999999995" as="targetPoint"/>
                    </mxGeometry>
                </mxCell>
                <mxCell id="1" style="" parent="0"/>
            </root>
        </mxGraphModel>
    </diagram>
</mxfile>